<svg width="512" height="512" viewBox="0 0 512 512" fill="none" xmlns="http://www.w3.org/2000/svg">
<rect width="512" height="512" rx="115" fill="#222022"/>
<g clip-path="url(#clip0_2073_12)">
<path d="M256 83C221.335 83 192.841 111.493 192.841 146.159C192.841 180.824 221.335 209.317 256 209.317C290.665 209.317 319.159 180.824 319.159 146.159C319.159 111.493 290.665 83 256 83ZM256 119.492C270.944 119.492 282.667 131.215 282.667 146.159C282.667 161.103 270.944 172.826 256 172.826C241.056 172.826 229.333 161.103 229.333 146.159C229.333 131.215 241.056 119.492 256 119.492Z" fill="#E4E4E4"/>
<path d="M146.159 187.349C111.493 187.349 83 215.842 83 250.508C83 285.173 111.493 313.667 146.159 313.667C180.824 313.667 209.317 285.173 209.317 250.508C209.317 215.842 180.824 187.349 146.159 187.349ZM146.159 223.841C161.103 223.841 172.826 235.564 172.826 250.508C172.826 265.452 161.103 277.175 146.159 277.175C131.215 277.175 119.492 265.452 119.492 250.508C119.492 235.564 131.215 223.841 146.159 223.841Z" fill="#E4E4E4"/>
<path d="M365.841 192.841C331.176 192.841 302.683 221.335 302.683 256C302.683 290.666 331.176 319.159 365.841 319.159C400.507 319.159 429 290.666 429 256C429 221.335 400.507 192.841 365.841 192.841ZM365.841 229.333C380.785 229.333 392.508 241.056 392.508 256C392.508 270.944 380.785 282.667 365.841 282.667C350.897 282.667 339.174 270.944 339.174 256C339.174 241.056 350.897 229.333 365.841 229.333Z" fill="#E4E4E4"/>
<path d="M256 302.682C221.335 302.682 192.841 331.176 192.841 365.841C192.841 400.507 221.335 429 256 429C290.665 429 319.159 400.507 319.159 365.841C319.159 331.176 290.665 302.682 256 302.682ZM256 339.174C270.944 339.174 282.667 350.897 282.667 365.841C282.667 380.785 270.944 392.508 256 392.508C241.056 392.508 229.333 380.785 229.333 365.841C229.333 350.897 241.056 339.174 256 339.174Z" fill="#E4E4E4"/>
</g>
<defs>
<clipPath id="clip0_2073_12">
<rect width="346" height="346" fill="white" transform="translate(83 83)"/>
</clipPath>
</defs>
</svg>
